<svg width="17" height="17" viewBox="0 0 17 16" fill="none" xmlns="http://www.w3.org/2000/svg">
<g clip-path="url(#clip0_2004_3)">
<path d="M4.8125 4.00004C4.8125 4.00004 6.35117 3.33337 8.8125 3.33337C11.2738 3.33337 12.8125 4.00004 12.8125 4.00004V9.33337C12.8125 9.33337 10.9665 8.66671 8.8125 8.66671C6.6585 8.66671 4.8125 9.33337 4.8125 9.33337V4.00004ZM5.26317 10.5367L3.48183 11.172L3.4805 6.91204C1.87517 7.29604 0.8125 8.00004 0.8125 8.00004V8.04537C1.8125 8.66671 2.8125 10 2.8125 10C2.8125 10 1.60717 11.3587 0.8125 13.288V13.3334C2.47917 12.6667 4.2685 12.1187 5.47917 12V10.4674C5.34517 10.5087 5.2665 10.536 5.26317 10.5367ZM16.8125 8.04537V8.00004C16.8125 8.00004 15.7505 7.29671 14.1458 6.91204V11.1807L12.3592 10.536C12.3592 10.536 12.2785 10.508 12.1458 10.4674V12C13.3565 12.1187 15.1458 12.6667 16.8125 13.3334V13.288C16.0178 11.3594 14.8125 10 14.8125 10C14.8125 10 15.8125 8.66671 16.8125 8.04537Z" fill="white"/>
</g>
<defs>
<clipPath id="clip0_2004_3">
<rect width="16" height="16" fill="white" transform="translate(0.8125)"/>
</clipPath>
</defs>
</svg>
