<svg width="57" height="56" viewBox="0 0 57 56" fill="none" xmlns="http://www.w3.org/2000/svg">
<path d="M28.3125 56C43.7765 56 56.3125 43.464 56.3125 28C56.3125 12.536 43.7765 0 28.3125 0C12.8485 0 0.3125 12.536 0.3125 28C0.3125 43.464 12.8485 56 28.3125 56Z" fill="#019AED"/>
<path d="M39.9597 16.7597C39.9521 17.0462 39.5804 17.4194 39.2883 17.5891C36.9175 18.984 34.543 20.3751 32.1267 21.6871C31.3453 22.1093 31.1026 22.6032 31.1102 23.4665C31.1481 29.4835 31.1177 35.5042 31.1443 41.525C31.1443 42.2488 30.9736 42.7012 30.2832 43.0631C28.6787 43.9001 27.1349 44.8426 25.5569 45.7286C25.3597 45.8379 25.1283 45.8831 24.7869 46V25.9284C22.6627 27.1423 20.6144 28.3073 18.5395 29.491C17.7126 29.9623 16.8819 30.4373 16.0398 30.9161C16.0322 30.9199 16.0284 30.9237 16.0209 30.9274C16.0209 28.737 16.0626 26.7917 16.0019 24.8501C15.9753 24.0283 16.2257 23.5796 16.9654 23.1612C22.6058 19.9755 28.2122 16.7333 33.8299 13.5137C35.8289 12.3676 37.8279 11.2328 39.9938 10C39.9938 12.3827 40.0204 14.5693 39.9635 16.7521L39.9597 16.7597Z" fill="white"/>
</svg>
